<?xml version="1.0" encoding="utf-8"?>
<!-- Generator: Adobe Illustrator 24.0.2, SVG Export Plug-In . SVG Version: 6.00 Build 0)  -->
<svg version="1.1" id="Layer_1" xmlns="http://www.w3.org/2000/svg" xmlns:xlink="http://www.w3.org/1999/xlink" x="0px" y="0px"
	 viewBox="0 0 200 200" style="enable-background:new 0 0 200 200;" xml:space="preserve">
<style type="text/css">
	.st0{fill:#006837;}
</style>
<g>
	<rect x="0.5" y="75.5" class="st0" width="199" height="49"/>
	<path class="st0" d="M199,76v48H1V76H199 M200,75H0v50h200V75L200,75z"/>
</g>
<g>
	<path class="st0" d="M20,199.5c-10.75,0-19.5-8.75-19.5-19.5v-29.5h199V180c0,10.75-8.75,19.5-19.5,19.5H20z"/>
	<path class="st0" d="M199,151v29c0,10.48-8.52,19-19,19H20c-10.48,0-19-8.52-19-19v-29H199 M200,150H0v30c0,11.05,8.95,20,20,20
		h160c11.05,0,20-8.95,20-20V150L200,150z"/>
</g>
<g>
	<path class="st0" d="M0.5,49.5V20C0.5,9.25,9.25,0.5,20,0.5h160c10.75,0,19.5,8.75,19.5,19.5v29.5H0.5z"/>
	<path class="st0" d="M180,1c10.48,0,19,8.52,19,19v29H1V20C1,9.52,9.52,1,20,1H180 M180,0H20C8.95,0,0,8.95,0,20v30h200V20
		C200,8.95,191.05,0,180,0L180,0z"/>
</g>
</svg>
